<svg xmlns="http://www.w3.org/2000/svg" xmlns:xlink="http://www.w3.org/1999/xlink" width="3000" zoomAndPan="magnify" viewBox="0 0 2250 599.999999" height="800" preserveAspectRatio="xMidYMid meet" version="1.0"><defs><g/><clipPath id="f96866c34e"><rect x="0" width="2235" y="0" height="408"/></clipPath></defs><g transform="matrix(1, 0, 0, 1, 7, 58)"><g clip-path="url(#f96866c34e)"><g fill="#f5f3ef" fill-opacity="1"><g transform="translate(2.108457, 324.433928)"><g><path d="M 149.375 -141.25 C 168.789062 -131.539062 183.523438 -119.796875 193.578125 -106.015625 C 203.628906 -92.242188 208.65625 -77.113281 208.65625 -60.625 C 208.65625 -39.40625 201.820312 -23.992188 188.15625 -14.390625 C 174.5 -4.796875 153.554688 0 125.328125 0 L 15.578125 0 L 15.578125 -9.484375 C 26.191406 -10.160156 31.5 -17.273438 31.5 -30.828125 L 31.5 -193.75 C 31.5 -207.070312 26.191406 -214.070312 15.578125 -214.75 L 15.578125 -224.234375 L 140.5625 -224.234375 C 158.40625 -224.234375 171.671875 -222.03125 180.359375 -217.625 C 189.054688 -213.21875 193.40625 -205.367188 193.40625 -194.078125 C 193.40625 -184.597656 189.734375 -175.566406 182.390625 -166.984375 C 175.054688 -158.398438 164.050781 -149.820312 149.375 -141.25 Z M 91.109375 -114.484375 L 91.109375 -50.46875 C 91.109375 -40.988281 92.179688 -34.046875 94.328125 -29.640625 C 96.472656 -25.234375 101.046875 -23.03125 108.046875 -23.03125 C 120.015625 -23.03125 129.5 -27.941406 136.5 -37.765625 C 143.5 -47.585938 147 -61.421875 147 -79.265625 C 147 -89.191406 145.132812 -98.554688 141.40625 -107.359375 C 137.6875 -116.171875 132.441406 -123.738281 125.671875 -130.0625 C 119.796875 -126.675781 113.976562 -123.6875 108.21875 -121.09375 C 102.457031 -118.5 96.753906 -116.296875 91.109375 -114.484375 Z M 91.109375 -136.5 C 106.460938 -141.925781 118.203125 -148.984375 126.328125 -157.671875 C 134.460938 -166.367188 138.53125 -175.003906 138.53125 -183.578125 C 138.53125 -196.679688 130.398438 -203.234375 114.140625 -203.234375 C 105.109375 -203.234375 99.007812 -201.707031 95.84375 -198.65625 C 92.6875 -195.601562 91.109375 -189.789062 91.109375 -181.21875 Z M 91.109375 -136.5 "/></g></g></g><g fill="#f5f3ef" fill-opacity="1"><g transform="translate(220.233473, 324.433928)"><g><path d="M 8.46875 -82.984375 C 8.46875 -100.367188 12.25 -115.664062 19.8125 -128.875 C 27.375 -142.09375 37.816406 -152.425781 51.140625 -159.875 C 64.460938 -167.320312 79.707031 -171.046875 96.875 -171.046875 C 113.132812 -171.046875 127.472656 -167.429688 139.890625 -160.203125 C 152.304688 -152.984375 162.015625 -142.992188 169.015625 -130.234375 C 176.015625 -117.472656 179.515625 -102.515625 179.515625 -85.359375 C 179.515625 -68.191406 175.734375 -52.945312 168.171875 -39.625 C 160.609375 -26.300781 150.164062 -15.859375 136.84375 -8.296875 C 123.519531 -0.734375 108.164062 3.046875 90.78125 3.046875 C 74.519531 3.046875 60.175781 -0.453125 47.75 -7.453125 C 35.332031 -14.453125 25.679688 -24.441406 18.796875 -37.421875 C 11.910156 -50.410156 8.46875 -65.597656 8.46875 -82.984375 Z M 90.78125 -150.734375 C 82.425781 -150.734375 75.988281 -146.441406 71.46875 -137.859375 C 66.945312 -129.273438 64.6875 -116.289062 64.6875 -98.90625 C 64.6875 -72.9375 67.734375 -52.78125 73.828125 -38.4375 C 79.929688 -24.101562 87.835938 -16.9375 97.546875 -16.9375 C 105.898438 -16.9375 112.390625 -21.28125 117.015625 -29.96875 C 121.648438 -38.664062 123.96875 -51.484375 123.96875 -68.421875 C 123.96875 -94.617188 120.863281 -114.882812 114.65625 -129.21875 C 108.445312 -143.5625 100.488281 -150.734375 90.78125 -150.734375 Z M 90.78125 -150.734375 "/></g></g></g><g fill="#f5f3ef" fill-opacity="1"><g transform="translate(408.552589, 324.433928)"><g><path d="M 75.53125 -133.109375 C 79.375 -145.078125 85.414062 -154.390625 93.65625 -161.046875 C 101.894531 -167.710938 110.191406 -171.046875 118.546875 -171.046875 C 124.648438 -171.046875 130.1875 -169.804688 135.15625 -167.328125 L 128.03125 -114.828125 L 125.671875 -114.828125 C 121.597656 -126.117188 113.578125 -131.765625 101.609375 -131.765625 C 92.359375 -131.765625 85.984375 -128.207031 82.484375 -121.09375 C 78.984375 -113.976562 77.234375 -103.195312 77.234375 -88.75 L 77.234375 -37.265625 C 77.234375 -36.359375 77.234375 -35.394531 77.234375 -34.375 C 77.234375 -33.363281 77.234375 -32.40625 77.234375 -31.5 C 77.234375 -24.269531 77.960938 -18.847656 79.421875 -15.234375 C 80.890625 -11.628906 85.351562 -9.148438 92.8125 -7.796875 L 92.8125 0 L 9.140625 0 L 9.140625 -7.796875 C 16.597656 -9.148438 21.054688 -11.800781 22.515625 -15.75 C 23.984375 -19.695312 24.71875 -25.507812 24.71875 -33.1875 C 24.71875 -33.863281 24.71875 -34.539062 24.71875 -35.21875 C 24.71875 -35.90625 24.71875 -36.585938 24.71875 -37.265625 L 24.71875 -126.6875 C 24.71875 -136.613281 23.421875 -143.890625 20.828125 -148.515625 C 18.234375 -153.148438 13.660156 -155.46875 7.109375 -155.46875 C 6.890625 -155.46875 6.78125 -155.46875 6.78125 -155.46875 C 6.78125 -155.46875 6.664062 -155.46875 6.4375 -155.46875 L 6.4375 -163.265625 L 70.109375 -167.671875 C 73.722656 -157.503906 75.53125 -145.984375 75.53125 -133.109375 Z M 75.53125 -133.109375 "/></g></g></g><g fill="#f5f3ef" fill-opacity="1"><g transform="translate(548.098442, 324.433928)"><g><path d="M 51.828125 -248.953125 C 60.179688 -248.953125 67.066406 -246.070312 72.484375 -240.3125 C 77.898438 -234.5625 80.609375 -227.28125 80.609375 -218.46875 C 80.609375 -209.664062 77.898438 -202.382812 72.484375 -196.625 C 67.066406 -190.863281 60.179688 -187.984375 51.828125 -187.984375 C 43.472656 -187.984375 36.640625 -190.804688 31.328125 -196.453125 C 26.023438 -202.097656 23.375 -209.4375 23.375 -218.46875 C 23.375 -227.28125 26.023438 -234.5625 31.328125 -240.3125 C 36.640625 -246.070312 43.472656 -248.953125 51.828125 -248.953125 Z M 77.234375 -171.046875 L 77.234375 -37.265625 C 77.234375 -36.359375 77.234375 -35.394531 77.234375 -34.375 C 77.234375 -33.363281 77.234375 -32.40625 77.234375 -31.5 C 77.234375 -24.269531 77.960938 -18.847656 79.421875 -15.234375 C 80.890625 -11.628906 85.351562 -9.148438 92.8125 -7.796875 L 92.8125 0 L 9.140625 0 L 9.140625 -7.796875 C 16.597656 -9.148438 21.054688 -11.800781 22.515625 -15.75 C 23.984375 -19.695312 24.71875 -25.507812 24.71875 -33.1875 C 24.71875 -33.863281 24.71875 -34.539062 24.71875 -35.21875 C 24.71875 -35.90625 24.71875 -36.585938 24.71875 -37.265625 L 24.71875 -127.703125 C 24.71875 -137.628906 23.703125 -144.960938 21.671875 -149.703125 C 19.640625 -154.453125 14.335938 -157.28125 5.765625 -158.1875 L 5.765625 -165.640625 Z M 77.234375 -171.046875 "/></g></g></g><g fill="#f5f3ef" fill-opacity="1"><g transform="translate(650.048152, 324.433928)"><g><path d="M 168.6875 -115.5 L 168.6875 -36.921875 C 168.6875 -36.242188 168.6875 -35.566406 168.6875 -34.890625 C 168.6875 -34.210938 168.6875 -33.535156 168.6875 -32.859375 C 168.6875 -24.953125 169.414062 -19.078125 170.875 -15.234375 C 172.34375 -11.398438 176.804688 -8.921875 184.265625 -7.796875 L 184.265625 0 L 100.59375 0 L 100.59375 -7.796875 C 108.050781 -8.921875 112.515625 -11.398438 113.984375 -15.234375 C 115.453125 -19.078125 116.1875 -24.953125 116.1875 -32.859375 C 116.1875 -33.535156 116.1875 -34.210938 116.1875 -34.890625 C 116.1875 -35.566406 116.1875 -36.242188 116.1875 -36.921875 L 116.1875 -106.703125 C 116.1875 -116.628906 115.453125 -124.019531 113.984375 -128.875 C 112.515625 -133.738281 108.957031 -136.171875 103.3125 -136.171875 C 96.082031 -136.171875 89.925781 -131.484375 84.84375 -122.109375 C 79.769531 -112.734375 77.234375 -98.789062 77.234375 -80.28125 L 77.234375 -37.265625 C 77.234375 -36.359375 77.234375 -35.394531 77.234375 -34.375 C 77.234375 -33.363281 77.234375 -32.40625 77.234375 -31.5 C 77.234375 -24.269531 77.960938 -18.847656 79.421875 -15.234375 C 80.890625 -11.628906 85.351562 -9.148438 92.8125 -7.796875 L 92.8125 0 L 9.140625 0 L 9.140625 -7.796875 C 16.597656 -9.148438 21.054688 -11.800781 22.515625 -15.75 C 23.984375 -19.695312 24.71875 -25.507812 24.71875 -33.1875 C 24.71875 -33.863281 24.71875 -34.539062 24.71875 -35.21875 C 24.71875 -35.90625 24.71875 -36.585938 24.71875 -37.265625 L 24.71875 -126.6875 C 24.71875 -136.613281 23.421875 -143.890625 20.828125 -148.515625 C 18.234375 -153.148438 13.660156 -155.46875 7.109375 -155.46875 C 6.890625 -155.46875 6.78125 -155.46875 6.78125 -155.46875 C 6.78125 -155.46875 6.664062 -155.46875 6.4375 -155.46875 L 6.4375 -163.265625 L 70.109375 -167.671875 C 73.722656 -157.503906 75.53125 -145.984375 75.53125 -133.109375 C 92.238281 -158.179688 110.867188 -170.71875 131.421875 -170.71875 C 146.546875 -170.71875 156.535156 -166.253906 161.390625 -157.328125 C 166.253906 -148.410156 168.6875 -134.46875 168.6875 -115.5 Z M 168.6875 -115.5 "/></g></g></g><g fill="#f5f3ef" fill-opacity="1"><g transform="translate(842.770394, 324.433928)"><g><path d="M 165.296875 -130.75 L 165.296875 -42.34375 C 165.296875 -38.050781 165.40625 -34.320312 165.625 -31.15625 C 165.851562 -28 166.757812 -25.40625 168.34375 -23.375 C 170.601562 -20.664062 173.195312 -17.785156 176.125 -14.734375 C 179.0625 -11.679688 181.660156 -8.066406 183.921875 -3.890625 C 186.179688 0.285156 187.3125 5.875 187.3125 12.875 C 187.3125 24.84375 183.300781 35.679688 175.28125 45.390625 C 167.269531 55.097656 155.753906 62.773438 140.734375 68.421875 C 125.722656 74.066406 107.71875 76.890625 86.71875 76.890625 C 54.195312 76.890625 26.644531 69.210938 4.0625 53.859375 L 33.875 3.390625 L 37.265625 5.421875 C 36.585938 7.679688 36.132812 9.769531 35.90625 11.6875 C 35.675781 13.601562 35.5625 15.46875 35.5625 17.28125 C 35.5625 27.882812 40.078125 36.460938 49.109375 43.015625 C 58.140625 49.566406 71.015625 52.84375 87.734375 52.84375 C 102.179688 52.84375 113.640625 49.625 122.109375 43.1875 C 130.578125 36.75 134.8125 29.238281 134.8125 20.65625 C 134.8125 14.5625 132.664062 9.765625 128.375 6.265625 C 124.082031 2.765625 117.875 1.015625 109.75 1.015625 C 105 1.015625 100.082031 1.351562 95 2.03125 C 89.925781 2.707031 84.789062 3.046875 79.59375 3.046875 C 57.46875 3.046875 39.910156 -3.894531 26.921875 -17.78125 C 13.941406 -31.664062 7.453125 -50.578125 7.453125 -74.515625 C 7.453125 -104.773438 16.597656 -127.863281 34.890625 -143.78125 C 53.179688 -159.707031 80.050781 -167.671875 115.5 -167.671875 L 180.875 -167.671875 L 180.875 -159.875 C 173.425781 -158.519531 168.96875 -156.09375 167.5 -152.59375 C 166.03125 -149.09375 165.296875 -143.726562 165.296875 -136.5 C 165.296875 -135.601562 165.296875 -134.703125 165.296875 -133.796875 C 165.296875 -132.890625 165.296875 -131.875 165.296875 -130.75 Z M 112.796875 -37.59375 L 112.796875 -148.015625 C 98.335938 -147.796875 86.929688 -141.585938 78.578125 -129.390625 C 70.222656 -117.191406 66.046875 -99.691406 66.046875 -76.890625 C 66.046875 -57.921875 68.925781 -43.351562 74.6875 -33.1875 C 80.445312 -23.03125 88.066406 -17.953125 97.546875 -17.953125 C 103.421875 -17.953125 107.429688 -19.472656 109.578125 -22.515625 C 111.722656 -25.566406 112.796875 -30.59375 112.796875 -37.59375 Z M 112.796875 -37.59375 "/></g></g></g><g fill="#f5f3ef" fill-opacity="1"><g transform="translate(1036.508823, 324.433928)"><g/></g></g><g fill="#f5f3ef" fill-opacity="1"><g transform="translate(1129.652223, 324.433928)"><g><path d="M 166.65625 -227.28125 L 168.34375 -149.71875 L 164.28125 -149.71875 C 160.664062 -167.78125 153.773438 -181.722656 143.609375 -191.546875 C 133.453125 -201.367188 121.597656 -206.28125 108.046875 -206.28125 C 98.335938 -206.28125 90.4375 -203.851562 84.34375 -199 C 78.25 -194.144531 75.203125 -188.21875 75.203125 -181.21875 C 75.203125 -174.21875 77.910156 -168.628906 83.328125 -164.453125 C 88.742188 -160.273438 96.644531 -156.265625 107.03125 -152.421875 C 119.226562 -147.910156 129.5625 -144.128906 138.03125 -141.078125 C 146.5 -138.023438 152.878906 -135.03125 157.171875 -132.09375 C 168.234375 -124.875 176.414062 -116.632812 181.71875 -107.375 C 187.03125 -98.113281 189.6875 -87.273438 189.6875 -74.859375 C 189.6875 -60.179688 185.847656 -46.859375 178.171875 -34.890625 C 170.492188 -22.921875 159.707031 -13.4375 145.8125 -6.4375 C 131.925781 0.5625 115.726562 4.0625 97.21875 4.0625 C 82.757812 4.0625 70.445312 2.707031 60.28125 0 C 50.125 -2.707031 42.113281 -4.0625 36.25 -4.0625 C 30.601562 -4.0625 25.859375 -2.253906 22.015625 1.359375 L 15.921875 -89.421875 L 20.328125 -89.765625 C 24.160156 -67.179688 32.507812 -49.507812 45.375 -36.75 C 58.25 -23.988281 73.609375 -17.609375 91.453125 -17.609375 C 104.546875 -17.609375 115.15625 -21.164062 123.28125 -28.28125 C 131.414062 -35.394531 135.484375 -44.144531 135.484375 -54.53125 C 135.484375 -63.113281 133.054688 -69.832031 128.203125 -74.6875 C 123.347656 -79.539062 115.613281 -84 105 -88.0625 C 90.550781 -93.707031 78.359375 -98.394531 68.421875 -102.125 C 58.484375 -105.851562 51.03125 -109.519531 46.0625 -113.125 C 30.03125 -125.550781 22.015625 -141.8125 22.015625 -161.90625 C 22.015625 -181.550781 29.296875 -197.523438 43.859375 -209.828125 C 58.429688 -222.140625 78.703125 -228.296875 104.671875 -228.296875 C 114.828125 -228.296875 124.023438 -227.222656 132.265625 -225.078125 C 140.515625 -222.929688 147.6875 -221.859375 153.78125 -221.859375 C 159.875 -221.859375 164.164062 -223.664062 166.65625 -227.28125 Z M 166.65625 -227.28125 "/></g></g></g><g fill="#f5f3ef" fill-opacity="1"><g transform="translate(1332.874186, 324.433928)"><g><path d="M 78.921875 -232.359375 L 78.921875 -167.671875 L 104.671875 -167.671875 C 107.828125 -167.671875 110.703125 -167.953125 113.296875 -168.515625 C 115.898438 -169.078125 118.554688 -170.375 121.265625 -172.40625 L 111.09375 -143.953125 C 109.519531 -145.984375 107.828125 -147.164062 106.015625 -147.5 C 104.210938 -147.84375 102.066406 -148.015625 99.578125 -148.015625 L 78.921875 -148.015625 L 78.921875 -52.84375 C 78.921875 -42.457031 79.765625 -34.722656 81.453125 -29.640625 C 83.148438 -24.554688 87.160156 -22.015625 93.484375 -22.015625 C 105.679688 -22.015625 115.390625 -33.082031 122.609375 -55.21875 L 126.6875 -54.1875 L 116.1875 -4.0625 C 103.539062 0.90625 90.441406 3.390625 76.890625 3.390625 C 65.367188 3.390625 55.992188 1.8125 48.765625 -1.34375 C 41.546875 -4.507812 35.675781 -9.929688 31.15625 -17.609375 C 29.351562 -20.992188 28.113281 -26.015625 27.4375 -32.671875 C 26.757812 -39.335938 26.421875 -47.753906 26.421875 -57.921875 L 26.421875 -148.015625 L 7.453125 -148.015625 L 7.453125 -156.484375 C 15.359375 -157.390625 21.566406 -161.453125 26.078125 -168.671875 C 30.597656 -175.898438 32.859375 -185.835938 32.859375 -198.484375 C 32.859375 -202.097656 32.519531 -206.050781 31.84375 -210.34375 C 39.738281 -210.789062 47.640625 -212.820312 55.546875 -216.4375 C 63.453125 -220.050781 71.242188 -225.359375 78.921875 -232.359375 Z M 78.921875 -232.359375 "/></g></g></g><g fill="#f5f3ef" fill-opacity="1"><g transform="translate(1464.629886, 324.433928)"><g><path d="M 8.46875 -82.984375 C 8.46875 -100.367188 12.25 -115.664062 19.8125 -128.875 C 27.375 -142.09375 37.816406 -152.425781 51.140625 -159.875 C 64.460938 -167.320312 79.707031 -171.046875 96.875 -171.046875 C 113.132812 -171.046875 127.472656 -167.429688 139.890625 -160.203125 C 152.304688 -152.984375 162.015625 -142.992188 169.015625 -130.234375 C 176.015625 -117.472656 179.515625 -102.515625 179.515625 -85.359375 C 179.515625 -68.191406 175.734375 -52.945312 168.171875 -39.625 C 160.609375 -26.300781 150.164062 -15.859375 136.84375 -8.296875 C 123.519531 -0.734375 108.164062 3.046875 90.78125 3.046875 C 74.519531 3.046875 60.175781 -0.453125 47.75 -7.453125 C 35.332031 -14.453125 25.679688 -24.441406 18.796875 -37.421875 C 11.910156 -50.410156 8.46875 -65.597656 8.46875 -82.984375 Z M 90.78125 -150.734375 C 82.425781 -150.734375 75.988281 -146.441406 71.46875 -137.859375 C 66.945312 -129.273438 64.6875 -116.289062 64.6875 -98.90625 C 64.6875 -72.9375 67.734375 -52.78125 73.828125 -38.4375 C 79.929688 -24.101562 87.835938 -16.9375 97.546875 -16.9375 C 105.898438 -16.9375 112.390625 -21.28125 117.015625 -29.96875 C 121.648438 -38.664062 123.96875 -51.484375 123.96875 -68.421875 C 123.96875 -94.617188 120.863281 -114.882812 114.65625 -129.21875 C 108.445312 -143.5625 100.488281 -150.734375 90.78125 -150.734375 Z M 90.78125 -150.734375 "/></g></g></g><g fill="#f5f3ef" fill-opacity="1"><g transform="translate(1652.94906, 324.433928)"><g><path d="M 75.53125 -133.109375 C 79.375 -145.078125 85.414062 -154.390625 93.65625 -161.046875 C 101.894531 -167.710938 110.191406 -171.046875 118.546875 -171.046875 C 124.648438 -171.046875 130.1875 -169.804688 135.15625 -167.328125 L 128.03125 -114.828125 L 125.671875 -114.828125 C 121.597656 -126.117188 113.578125 -131.765625 101.609375 -131.765625 C 92.359375 -131.765625 85.984375 -128.207031 82.484375 -121.09375 C 78.984375 -113.976562 77.234375 -103.195312 77.234375 -88.75 L 77.234375 -37.265625 C 77.234375 -36.359375 77.234375 -35.394531 77.234375 -34.375 C 77.234375 -33.363281 77.234375 -32.40625 77.234375 -31.5 C 77.234375 -24.269531 77.960938 -18.847656 79.421875 -15.234375 C 80.890625 -11.628906 85.351562 -9.148438 92.8125 -7.796875 L 92.8125 0 L 9.140625 0 L 9.140625 -7.796875 C 16.597656 -9.148438 21.054688 -11.800781 22.515625 -15.75 C 23.984375 -19.695312 24.71875 -25.507812 24.71875 -33.1875 C 24.71875 -33.863281 24.71875 -34.539062 24.71875 -35.21875 C 24.71875 -35.90625 24.71875 -36.585938 24.71875 -37.265625 L 24.71875 -126.6875 C 24.71875 -136.613281 23.421875 -143.890625 20.828125 -148.515625 C 18.234375 -153.148438 13.660156 -155.46875 7.109375 -155.46875 C 6.890625 -155.46875 6.78125 -155.46875 6.78125 -155.46875 C 6.78125 -155.46875 6.664062 -155.46875 6.4375 -155.46875 L 6.4375 -163.265625 L 70.109375 -167.671875 C 73.722656 -157.503906 75.53125 -145.984375 75.53125 -133.109375 Z M 75.53125 -133.109375 "/></g></g></g><g fill="#f5f3ef" fill-opacity="1"><g transform="translate(1792.494884, 324.433928)"><g><path d="M 51.828125 -248.953125 C 60.179688 -248.953125 67.066406 -246.070312 72.484375 -240.3125 C 77.898438 -234.5625 80.609375 -227.28125 80.609375 -218.46875 C 80.609375 -209.664062 77.898438 -202.382812 72.484375 -196.625 C 67.066406 -190.863281 60.179688 -187.984375 51.828125 -187.984375 C 43.472656 -187.984375 36.640625 -190.804688 31.328125 -196.453125 C 26.023438 -202.097656 23.375 -209.4375 23.375 -218.46875 C 23.375 -227.28125 26.023438 -234.5625 31.328125 -240.3125 C 36.640625 -246.070312 43.472656 -248.953125 51.828125 -248.953125 Z M 77.234375 -171.046875 L 77.234375 -37.265625 C 77.234375 -36.359375 77.234375 -35.394531 77.234375 -34.375 C 77.234375 -33.363281 77.234375 -32.40625 77.234375 -31.5 C 77.234375 -24.269531 77.960938 -18.847656 79.421875 -15.234375 C 80.890625 -11.628906 85.351562 -9.148438 92.8125 -7.796875 L 92.8125 0 L 9.140625 0 L 9.140625 -7.796875 C 16.597656 -9.148438 21.054688 -11.800781 22.515625 -15.75 C 23.984375 -19.695312 24.71875 -25.507812 24.71875 -33.1875 C 24.71875 -33.863281 24.71875 -34.539062 24.71875 -35.21875 C 24.71875 -35.90625 24.71875 -36.585938 24.71875 -37.265625 L 24.71875 -127.703125 C 24.71875 -137.628906 23.703125 -144.960938 21.671875 -149.703125 C 19.640625 -154.453125 14.335938 -157.28125 5.765625 -158.1875 L 5.765625 -165.640625 Z M 77.234375 -171.046875 "/></g></g></g><g fill="#f5f3ef" fill-opacity="1"><g transform="translate(1894.444537, 324.433928)"><g><path d="M 110.765625 -110.421875 C 110.765625 -110.867188 110.765625 -111.207031 110.765625 -111.4375 C 110.765625 -111.664062 110.765625 -111.890625 110.765625 -112.109375 C 110.765625 -124.535156 108.84375 -133.851562 105 -140.0625 C 101.164062 -146.269531 95.75 -149.375 88.75 -149.375 C 81.070312 -149.375 75.03125 -145.757812 70.625 -138.53125 C 66.21875 -131.3125 64.015625 -120.703125 64.015625 -106.703125 C 64.015625 -105.347656 64.015625 -103.988281 64.015625 -102.625 C 64.015625 -101.269531 64.128906 -99.804688 64.359375 -98.234375 Z M 163.265625 -101.953125 L 65.71875 -76.21875 C 67.070312 -58.601562 71.925781 -44.769531 80.28125 -34.71875 C 88.632812 -24.664062 98.679688 -19.640625 110.421875 -19.640625 C 120.359375 -19.640625 129.785156 -23.644531 138.703125 -31.65625 C 147.617188 -39.675781 154.5625 -51.253906 159.53125 -66.390625 L 163.59375 -65.71875 L 146.671875 3.046875 C 142.597656 0.335938 138.867188 -1.015625 135.484375 -1.015625 C 131.421875 -1.015625 125.890625 -0.28125 118.890625 1.1875 C 111.890625 2.65625 103.535156 3.390625 93.828125 3.390625 C 76.441406 3.390625 61.3125 -0.273438 48.4375 -7.609375 C 35.5625 -14.953125 25.625 -25.285156 18.625 -38.609375 C 11.625 -51.929688 8.125 -67.285156 8.125 -84.671875 C 8.125 -107.253906 14.898438 -126.453125 28.453125 -142.265625 C 36.359375 -151.523438 45.726562 -158.632812 56.5625 -163.59375 C 67.40625 -168.5625 78.695312 -171.046875 90.4375 -171.046875 C 111.207031 -171.046875 128.082031 -164.945312 141.0625 -152.75 C 154.050781 -140.5625 161.453125 -123.628906 163.265625 -101.953125 Z M 163.265625 -101.953125 "/></g></g></g><g fill="#f5f3ef" fill-opacity="1"><g transform="translate(2070.908956, 324.433928)"><g><path d="M 132.4375 -170.375 L 136.5 -117.203125 L 131.765625 -116.859375 C 129.734375 -127.921875 124.878906 -136.613281 117.203125 -142.9375 C 109.523438 -149.257812 99.925781 -152.421875 88.40625 -152.421875 C 81.632812 -152.421875 76.382812 -150.953125 72.65625 -148.015625 C 68.925781 -145.078125 67.0625 -141.238281 67.0625 -136.5 C 67.0625 -131.3125 68.867188 -127.472656 72.484375 -124.984375 C 76.097656 -122.503906 81.289062 -120.019531 88.0625 -117.53125 C 95.738281 -114.820312 103.53125 -112.113281 111.4375 -109.40625 C 119.34375 -106.695312 127.132812 -102.296875 134.8125 -96.203125 C 144.96875 -87.835938 150.046875 -75.976562 150.046875 -60.625 C 150.046875 -48.65625 146.882812 -37.816406 140.5625 -28.109375 C 134.238281 -18.398438 125.429688 -10.722656 114.140625 -5.078125 C 102.859375 0.566406 89.648438 3.390625 74.515625 3.390625 C 63.003906 3.390625 53.460938 2.316406 45.890625 0.171875 C 38.328125 -1.972656 32.398438 -3.046875 28.109375 -3.046875 C 23.597656 -3.046875 19.082031 -1.46875 14.5625 1.6875 L 11.859375 -67.40625 L 16.59375 -67.75 C 17.726562 -52.613281 23.035156 -40.472656 32.515625 -31.328125 C 42.003906 -22.179688 53.972656 -17.609375 68.421875 -17.609375 C 78.128906 -17.609375 85.914062 -20.09375 91.78125 -25.0625 C 97.65625 -30.03125 100.59375 -36.46875 100.59375 -44.375 C 100.59375 -54.53125 93.253906 -62.207031 78.578125 -67.40625 C 67.285156 -71.238281 57.347656 -74.285156 48.765625 -76.546875 C 40.191406 -78.804688 33.757812 -81.96875 29.46875 -86.03125 C 19.988281 -95.519531 15.25 -106.25 15.25 -118.21875 C 15.25 -127.925781 18.066406 -136.785156 23.703125 -144.796875 C 29.347656 -152.816406 37.195312 -159.195312 47.25 -163.9375 C 57.300781 -168.675781 68.988281 -171.046875 82.3125 -171.046875 C 91.789062 -171.046875 99.75 -170.3125 106.1875 -168.84375 C 112.625 -167.382812 117.535156 -166.65625 120.921875 -166.65625 C 125.210938 -166.65625 129.050781 -167.894531 132.4375 -170.375 Z M 132.4375 -170.375 "/></g></g></g></g></g></svg>